<svg fill="#000000" xmlns="http://www.w3.org/2000/svg" viewBox="0 0 24 24" width="24px" height="24px"><path d="M 2.3125 4 C 1.039063 4 0 5.039063 0 6.3125 L 0 18.6875 C 0 19.960938 1.039063 21 2.3125 21 L 21.6875 21 C 22.960938 21 24 19.960938 24 18.6875 L 24 6.3125 C 24 5.039063 22.960938 4 21.6875 4 Z M 2.3125 6 L 21.6875 6 C 21.878906 6 22 6.121094 22 6.3125 L 22 18.6875 C 22 18.878906 21.878906 19 21.6875 19 L 2.3125 19 C 2.121094 19 2 18.878906 2 18.6875 L 2 6.3125 C 2 6.121094 2.121094 6 2.3125 6 Z M 9.5 8 C 7.015625 8 5 10.015625 5 12.5 C 5 14.984375 7.015625 17 9.5 17 C 10.417969 17 11.289063 16.722656 12 16.25 C 12.710938 16.722656 13.582031 17 14.5 17 C 16.984375 17 19 14.984375 19 12.5 C 19 10.015625 16.984375 8 14.5 8 C 13.582031 8 12.710938 8.277344 12 8.75 C 11.289063 8.277344 10.417969 8 9.5 8 Z M 14.5 10 C 15.878906 10 17 11.121094 17 12.5 C 17 13.878906 15.878906 15 14.5 15 C 14.09375 15 13.714844 14.890625 13.375 14.71875 C 13.75 14.0625 14 13.3125 14 12.5 C 14 11.6875 13.75 10.9375 13.375 10.28125 C 13.714844 10.109375 14.09375 10 14.5 10 Z"/></svg>